<mxfile host="app.diagrams.net" modified="2023-08-12T22:16:38.769Z" agent="Mozilla/5.0 (Windows NT 10.0; Win64; x64) AppleWebKit/537.36 (KHTML, like Gecko) Chrome/115.0.0.0 Safari/537.36" etag="dB36LNHfuBMxFdlscYEn" version="21.6.8" type="github" pages="2">
  <diagram name="flowchart menghitung luas segitiga" id="02AUiCBUXTpu5wbuscKD">
    <mxGraphModel dx="794" dy="502" grid="1" gridSize="10" guides="1" tooltips="1" connect="1" arrows="1" fold="1" page="1" pageScale="1" pageWidth="827" pageHeight="1169" math="0" shadow="0">
      <root>
        <mxCell id="0" />
        <mxCell id="1" parent="0" />
        <mxCell id="TOHR-k1hnIP0gA2bytH3-19" style="edgeStyle=orthogonalEdgeStyle;rounded=0;orthogonalLoop=1;jettySize=auto;html=1;" parent="1" source="TOHR-k1hnIP0gA2bytH3-12" target="TOHR-k1hnIP0gA2bytH3-16" edge="1">
          <mxGeometry relative="1" as="geometry" />
        </mxCell>
        <mxCell id="TOHR-k1hnIP0gA2bytH3-12" value="Start" style="strokeWidth=2;html=1;shape=mxgraph.flowchart.terminator;whiteSpace=wrap;" parent="1" vertex="1">
          <mxGeometry x="330" y="40" width="100" height="60" as="geometry" />
        </mxCell>
        <mxCell id="TOHR-k1hnIP0gA2bytH3-23" style="edgeStyle=orthogonalEdgeStyle;rounded=0;orthogonalLoop=1;jettySize=auto;html=1;entryX=0.5;entryY=0;entryDx=0;entryDy=0;" parent="1" source="TOHR-k1hnIP0gA2bytH3-14" target="TOHR-k1hnIP0gA2bytH3-24" edge="1">
          <mxGeometry relative="1" as="geometry" />
        </mxCell>
        <mxCell id="TOHR-k1hnIP0gA2bytH3-14" value="luas=1/2*(alas*tinggi)" style="rounded=1;whiteSpace=wrap;html=1;absoluteArcSize=1;arcSize=14;strokeWidth=2;" parent="1" vertex="1">
          <mxGeometry x="320" y="280" width="120" height="60" as="geometry" />
        </mxCell>
        <mxCell id="TOHR-k1hnIP0gA2bytH3-15" value="End" style="strokeWidth=2;html=1;shape=mxgraph.flowchart.terminator;whiteSpace=wrap;" parent="1" vertex="1">
          <mxGeometry x="330" y="440" width="100" height="60" as="geometry" />
        </mxCell>
        <mxCell id="TOHR-k1hnIP0gA2bytH3-21" style="edgeStyle=orthogonalEdgeStyle;rounded=0;orthogonalLoop=1;jettySize=auto;html=1;" parent="1" source="TOHR-k1hnIP0gA2bytH3-16" target="TOHR-k1hnIP0gA2bytH3-17" edge="1">
          <mxGeometry relative="1" as="geometry" />
        </mxCell>
        <mxCell id="TOHR-k1hnIP0gA2bytH3-16" value="Input Alas" style="shape=parallelogram;html=1;strokeWidth=2;perimeter=parallelogramPerimeter;whiteSpace=wrap;rounded=1;arcSize=12;size=0.23;" parent="1" vertex="1">
          <mxGeometry x="330" y="120" width="100" height="60" as="geometry" />
        </mxCell>
        <mxCell id="TOHR-k1hnIP0gA2bytH3-22" style="edgeStyle=orthogonalEdgeStyle;rounded=0;orthogonalLoop=1;jettySize=auto;html=1;" parent="1" source="TOHR-k1hnIP0gA2bytH3-17" target="TOHR-k1hnIP0gA2bytH3-14" edge="1">
          <mxGeometry relative="1" as="geometry" />
        </mxCell>
        <mxCell id="TOHR-k1hnIP0gA2bytH3-17" value="Input Tinggi" style="shape=parallelogram;html=1;strokeWidth=2;perimeter=parallelogramPerimeter;whiteSpace=wrap;rounded=1;arcSize=12;size=0.23;" parent="1" vertex="1">
          <mxGeometry x="330" y="200" width="100" height="60" as="geometry" />
        </mxCell>
        <mxCell id="TOHR-k1hnIP0gA2bytH3-25" style="edgeStyle=orthogonalEdgeStyle;rounded=0;orthogonalLoop=1;jettySize=auto;html=1;" parent="1" source="TOHR-k1hnIP0gA2bytH3-24" target="TOHR-k1hnIP0gA2bytH3-15" edge="1">
          <mxGeometry relative="1" as="geometry" />
        </mxCell>
        <mxCell id="TOHR-k1hnIP0gA2bytH3-24" value="Tampilkan Luas" style="shape=parallelogram;html=1;strokeWidth=2;perimeter=parallelogramPerimeter;whiteSpace=wrap;rounded=1;arcSize=12;size=0.23;" parent="1" vertex="1">
          <mxGeometry x="320" y="360" width="120" height="60" as="geometry" />
        </mxCell>
      </root>
    </mxGraphModel>
  </diagram>
  <diagram id="8VTxvFwr_7CSF54wP58C" name="Memeriksa tahun kabisat">
    <mxGraphModel dx="794" dy="502" grid="1" gridSize="10" guides="1" tooltips="1" connect="1" arrows="1" fold="1" page="1" pageScale="1" pageWidth="827" pageHeight="1169" math="0" shadow="0">
      <root>
        <mxCell id="0" />
        <mxCell id="1" parent="0" />
        <mxCell id="DsSLYKMkiSOnTwV5Oxru-4" style="edgeStyle=orthogonalEdgeStyle;rounded=0;orthogonalLoop=1;jettySize=auto;html=1;" edge="1" parent="1" source="DsSLYKMkiSOnTwV5Oxru-1" target="DsSLYKMkiSOnTwV5Oxru-2">
          <mxGeometry relative="1" as="geometry" />
        </mxCell>
        <mxCell id="DsSLYKMkiSOnTwV5Oxru-1" value="start" style="strokeWidth=2;html=1;shape=mxgraph.flowchart.terminator;whiteSpace=wrap;" vertex="1" parent="1">
          <mxGeometry x="360" y="60" width="100" height="60" as="geometry" />
        </mxCell>
        <mxCell id="DsSLYKMkiSOnTwV5Oxru-5" style="edgeStyle=orthogonalEdgeStyle;rounded=0;orthogonalLoop=1;jettySize=auto;html=1;entryX=0.5;entryY=0;entryDx=0;entryDy=0;entryPerimeter=0;" edge="1" parent="1" source="DsSLYKMkiSOnTwV5Oxru-2" target="DsSLYKMkiSOnTwV5Oxru-3">
          <mxGeometry relative="1" as="geometry" />
        </mxCell>
        <mxCell id="DsSLYKMkiSOnTwV5Oxru-2" value="Masukkan tahun" style="shape=parallelogram;html=1;strokeWidth=2;perimeter=parallelogramPerimeter;whiteSpace=wrap;rounded=1;arcSize=12;size=0.23;" vertex="1" parent="1">
          <mxGeometry x="345" y="170" width="130" height="60" as="geometry" />
        </mxCell>
        <mxCell id="DsSLYKMkiSOnTwV5Oxru-7" style="edgeStyle=orthogonalEdgeStyle;rounded=0;orthogonalLoop=1;jettySize=auto;html=1;" edge="1" parent="1" source="DsSLYKMkiSOnTwV5Oxru-3" target="DsSLYKMkiSOnTwV5Oxru-6">
          <mxGeometry relative="1" as="geometry" />
        </mxCell>
        <mxCell id="DsSLYKMkiSOnTwV5Oxru-9" value="False" style="edgeLabel;html=1;align=center;verticalAlign=middle;resizable=0;points=[];" vertex="1" connectable="0" parent="DsSLYKMkiSOnTwV5Oxru-7">
          <mxGeometry x="-0.3078" relative="1" as="geometry">
            <mxPoint y="-12" as="offset" />
          </mxGeometry>
        </mxCell>
        <mxCell id="DsSLYKMkiSOnTwV5Oxru-10" style="edgeStyle=orthogonalEdgeStyle;rounded=0;orthogonalLoop=1;jettySize=auto;html=1;" edge="1" parent="1" source="DsSLYKMkiSOnTwV5Oxru-3" target="DsSLYKMkiSOnTwV5Oxru-8">
          <mxGeometry relative="1" as="geometry" />
        </mxCell>
        <mxCell id="DsSLYKMkiSOnTwV5Oxru-11" value="True" style="edgeLabel;html=1;align=center;verticalAlign=middle;resizable=0;points=[];" vertex="1" connectable="0" parent="DsSLYKMkiSOnTwV5Oxru-10">
          <mxGeometry x="-0.3016" y="-2" relative="1" as="geometry">
            <mxPoint x="-18" as="offset" />
          </mxGeometry>
        </mxCell>
        <mxCell id="DsSLYKMkiSOnTwV5Oxru-3" value="tahun % 4 === 0" style="strokeWidth=2;html=1;shape=mxgraph.flowchart.decision;whiteSpace=wrap;" vertex="1" parent="1">
          <mxGeometry x="360" y="272" width="100" height="100" as="geometry" />
        </mxCell>
        <mxCell id="DsSLYKMkiSOnTwV5Oxru-6" value="Bukan Tahun Kabisat" style="shape=parallelogram;html=1;strokeWidth=2;perimeter=parallelogramPerimeter;whiteSpace=wrap;rounded=1;arcSize=12;size=0.23;" vertex="1" parent="1">
          <mxGeometry x="540" y="292" width="100" height="60" as="geometry" />
        </mxCell>
        <mxCell id="DsSLYKMkiSOnTwV5Oxru-13" style="edgeStyle=orthogonalEdgeStyle;rounded=0;orthogonalLoop=1;jettySize=auto;html=1;" edge="1" parent="1" source="DsSLYKMkiSOnTwV5Oxru-8" target="DsSLYKMkiSOnTwV5Oxru-12">
          <mxGeometry relative="1" as="geometry" />
        </mxCell>
        <mxCell id="DsSLYKMkiSOnTwV5Oxru-8" value="Tahun Kabisat" style="shape=parallelogram;html=1;strokeWidth=2;perimeter=parallelogramPerimeter;whiteSpace=wrap;rounded=1;arcSize=12;size=0.23;" vertex="1" parent="1">
          <mxGeometry x="345" y="410" width="130" height="60" as="geometry" />
        </mxCell>
        <mxCell id="DsSLYKMkiSOnTwV5Oxru-12" value="end" style="strokeWidth=2;html=1;shape=mxgraph.flowchart.terminator;whiteSpace=wrap;" vertex="1" parent="1">
          <mxGeometry x="360" y="500" width="100" height="60" as="geometry" />
        </mxCell>
      </root>
    </mxGraphModel>
  </diagram>
</mxfile>
